<svg version="1.1" xmlns="http://www.w3.org/2000/svg" xmlns:xlink="http://www.w3.org/1999/xlink" width="94.7053" height="253.52045" viewBox="0,0,94.7053,253.52045"><g transform="translate(-192.32101,29.13568)"><g data-paper-data="{&quot;isPaintingLayer&quot;:true}" fill-rule="evenodd" stroke-miterlimit="10" stroke-dasharray="" stroke-dashoffset="0" style="mix-blend-mode: normal"><g><path d="M224.69999,149.07374c0.8,1.4323 2.5,4.65495 0.1,16.82947c-2.4,12.1745 -9.3,14.68102 -10.1,14.68102c-3.1,0.35807 -6.9,0.35807 -11.1,-4.65495c-12.2,-14.32296 -12.3,-61.23061 -8.4,-68.75015c3.8,-7.51955 5.5,21.48442 11,39.03004c2.4,7.87761 5.3,10.74222 7.7,12.53259c3.4,2.14845 9.9,-11.45835 10.8,-9.66798z" fill="#ffab19" stroke="#001026" stroke-width="1.2" stroke-linecap="round" stroke-linejoin="round"/><path d="M199.89999,120.06977c1.6,9.66798 4.7,23.27479 4.7,23.27479c0,0 -3.7,-3.22266 -5.8,2.86458c-1.7,4.65495 -1.3,12.53259 -1.1,15.0391c-1.3,-4.65495 -2.9,-11.10028 -3.9,-23.63287c-1,-12.53259 0,-27.57167 2,-29.72011c2,-1.4323 2.5,3.93881 4.1,12.1745z" fill="#ffffff" stroke="none" stroke-width="1" stroke-linecap="butt" stroke-linejoin="miter"/></g><path d="M231.56762,179.99272c-1.1111,3.28184 -4.82382,15.0119 -10.88728,24.99702l-0.31842,0.46312c-0.31842,0.46312 -0.28456,1.41336 0.06771,1.90049c2.56525,2.54345 7.42478,7.85794 3.186,14.74491c-4.05812,6.73526 -19.04995,-8.27392 -16.8435,-17.36895c1.11562,-3.67712 2.95154,-3.84869 3.93611,-3.89253c0.53745,-0.05985 0.9891,-0.43911 1.39784,-0.97811c0.91234,-1.54907 2.55637,-4.4955 3.70585,-7.22237c2.94031,-6.77527 3.45748,-8.97116 4.62053,-12.88385c1.16305,-3.91269 3.73082,-13.31111 8.44588,-11.00707c4.0489,1.88478 3.71004,8.04135 2.68927,11.24736z" fill="#ffab19" stroke="#001026" stroke-width="1.2" stroke-linecap="round" stroke-linejoin="round"/><path d="M243.1109,152.70751c0.63808,-0.09437 10.01796,1.73269 10.23243,-3.00952c0.29862,-5.61362 -0.12452,-14.88891 4.75849,-15.02916c4.883,-0.14026 3.79626,15.31571 2.72204,20.76696c-2.87837,12.36815 -11.00132,11.60213 -12.97279,11.00701c-1.97147,-0.59512 -5.35279,-1.50822 -7.14057,-4.84597c-1.8527,-3.71608 0.13465,-8.74818 2.4004,-8.88929z" fill="#ffab19" stroke="#001026" stroke-width="1.2" stroke-linecap="round" stroke-linejoin="round"/><g><path d="M245.69999,187.90163c2.1,3.35931 6.7,10.25471 6.7,10.25471c0,0 14.3,-4.42014 14.3,8.30985c0,7.60264 -7.2,9.37068 -16.9,7.77944c-0.6,-0.17681 -1.2,-0.53042 -1.7,-1.23764c-2.2,-3.35931 -8.5,-13.26041 -12.5,-20.15582c-5.9,-10.25471 -10.8,-16.97332 -10.8,-16.97332c-8.5,-14.67485 -1.6,-20.86303 1.1,-29.34969c2.5,-7.24902 3.6,-5.83458 9.6,-3.71291c3.4,0.88402 5.4,1.41444 7.6,1.23764c3.3,-0.17681 2.7,8.30985 1.8,12.72999c0,0 -1.4,6.54179 -2.7,9.9011c-1.6,4.06652 -2.8,6.7186 -4,8.30985z" fill="#ffab19" stroke="#001026" stroke-width="1.2" stroke-linecap="round" stroke-linejoin="round"/><path d="M237.29999,174.81804c0,0 -1.5,-2.12167 -3.1,-4.77375c-2,-3.1825 -4,-5.83458 -2,-11.31554c1.8,-4.24333 3.5,-9.9011 8,-4.77375c4.3,4.77375 2.4,9.19389 2.4,9.19389c-2.2,7.95624 -5.3,11.66916 -5.3,11.66916z" fill="#ffffff" stroke="none" stroke-width="1" stroke-linecap="butt" stroke-linejoin="miter"/></g><path d="M220.48417,146.66169c1.145,-1.1027 2.92115,-2.39629 4.60979,-3.77547c2.78524,-2.32716 8.02801,-4.47323 7.18268,4.80282c-0.62376,7.47218 -4.8165,10.64527 -9.61061,14.64458c-2.55251,1.94863 -5.56116,4.25933 -7.83807,0.21374c-2.57852,-4.54264 -8.95681,-20.68211 -3.21318,-26.98559c4.6191,-4.17048 6.03584,4.08519 7.42095,9.88522c0.29229,0.89208 0.86571,1.25088 1.44845,1.21469z" data-paper-data="{&quot;index&quot;:null}" fill="#ffab19" stroke="#001026" stroke-width="1.2" stroke-linecap="round" stroke-linejoin="round"/><path d="M253.22631,-28.23962c0.3,-0.59212 0.8,-0.29607 0.9,0.88816l2.6,31.67792c0,0 6.4,13.91458 8.3,23.68441c3.2,16.28304 3.3,29.60551 3.3,29.60551c0,0 7.1,6.21717 8.3,23.09232c1.2,16.87516 -3.2,48.84912 -22,59.80317c-18.8,10.95405 -33.9,-4.14478 -41,-37.89507c-7.1,-33.75029 4.1,-74.01382 3.5,-71.64536l-2.1,-52.99388c-0.1,-1.18422 0.4,-2.07239 0.8,-1.48026l12.1,23.38837c0,0 4.5,-5.03295 9.2,-5.62504c2.8,-0.59212 5.2,0 7.5,1.18422z" fill="#ffab19" stroke="#001026" stroke-width="1.2" stroke-linecap="butt" stroke-linejoin="miter"/><path d="M268.02631,58.8006c0,0 6.9,5.329 8.1,22.20415c1.2,16.87516 -3.6,47.36886 -22.2,58.02682c-24.2,14.80276 -35.7,-27.82918 -29,-59.21104c6.7,-31.67791 18.2,-4.73688 26.6,-6.51321c7.2,-1.48026 8,-20.13175 16.5,-14.50671z" fill="#ffffff" stroke="none" stroke-width="1" stroke-linecap="butt" stroke-linejoin="miter"/><path d="M286.42631,62.05722c-4.7,11.25011 -11.9,11.54617 -11.9,11.54617" fill="none" stroke="#001026" stroke-width="1.2" stroke-linecap="round" stroke-linejoin="round"/><path d="M285.12631,95.21541c-6.3,1.48026 -10.2,-4.14478 -10.2,-4.14478" fill="none" stroke="#001026" stroke-width="1.2" stroke-linecap="round" stroke-linejoin="round"/><path d="M206.12631,61.16906c0,0 8.6,8.28954 12.1,17.46726" fill="none" stroke="#001026" stroke-width="1.2" stroke-linecap="round" stroke-linejoin="round"/><path d="M218.99999,88.99825c-4.3,5.03295 -11.7,1.77633 -11.7,1.77633" fill="none" stroke="#001026" stroke-width="1.2" stroke-linecap="round" stroke-linejoin="round"/><path d="M283.84886,107.46893c0.31282,1.0116 -0.52162,2.06632 -1.66888,2.10943c-5.62541,-0.36427 -21.30884,-0.41461 -37.65739,3.0139c-14.66678,3.2374 -22.98456,6.36416 -26.75888,8.23291c-1.25811,0.62292 -2.71818,-0.34558 -2.57467,-1.7581c0.29386,-7.49437 4.58454,-29.27413 33.11631,-35.52692c25.10291,-4.20516 32.51332,11.31459 35.54352,23.92881z" fill="#ffffff" stroke="#001026" stroke-width="1.2" stroke-linecap="round" stroke-linejoin="round"/><path d="M252.54736,65.37569c2.1,0 4.3,0.35361 4.4,1.59125c0.1,2.47527 -1.4,7.42583 -3,7.60264c-1.8,0.35361 -6,-4.06652 -6,-6.89541c-0.1,-2.12167 2.6,-2.29847 4.6,-2.29847z" fill="#001026" stroke="#001026" stroke-width="1.2" stroke-linecap="round" stroke-linejoin="round"/><path d="M261.50527,4.48971c2.9,7.95624 3,16.97332 0.2,20.15582c-2.8,3.1825 -7.4,-0.53042 -10.4,-8.48666c-2.9,-7.95624 -3,-16.97332 -0.2,-20.15582c2.8,-3.35931 7.5,0.53042 10.4,8.48666z" fill="#ffffff" stroke="#001026" stroke-width="1.2" stroke-linecap="round" stroke-linejoin="round"/><path d="M236.70527,9.44025c3,7.77944 2.8,17.32693 0.1,20.68622c-3.3,3.35931 -7.7,0.88402 -10.7,-6.89541c-3.1,-7.77944 -3.3,-17.85734 -0.2,-21.74707c3.1,-4.06652 7.8,0.17681 10.8,7.95624z" fill="#ffffff" stroke="#001026" stroke-width="1.2" stroke-linecap="round" stroke-linejoin="round"/><path d="M237.37013,20.98518c0,5.25637 -2.16216,9.55704 -4.86486,9.55704c-2.7027,0 -4.86486,-4.30066 -4.86486,-9.55704c0,-5.25637 2.16216,-9.55704 4.86486,-9.55704c2.7027,0.47785 4.86486,4.30066 4.86486,9.55704" fill="#001026" stroke="none" stroke-width="1" stroke-linecap="butt" stroke-linejoin="miter"/><path d="M263.53223,13.91301c0,5.25637 -2.16215,9.55702 -4.86486,9.55702c-2.7027,0 -4.86486,-4.30065 -4.86486,-9.55702c0,-5.25637 2.16216,-9.55704 4.86486,-9.55704c2.7027,0.47785 4.86486,4.30066 4.86486,9.55704" fill="#001026" stroke="none" stroke-width="1" stroke-linecap="butt" stroke-linejoin="miter"/></g></g></svg>