<svg version="1.1" xmlns="http://www.w3.org/2000/svg" xmlns:xlink="http://www.w3.org/1999/xlink" width="94.7053" height="199.46639" viewBox="0,0,94.7053,199.46639"><g transform="translate(-196.82552,-32.42587)"><g data-paper-data="{&quot;isPaintingLayer&quot;:true}" fill-rule="evenodd" stroke-miterlimit="10" stroke-dasharray="" stroke-dashoffset="0" style="mix-blend-mode: normal"><g><path d="M229.2045,172.58642c0.8,1.12546 2.5,3.65773 0.1,13.22413c-2.4,9.56638 -9.3,11.53594 -10.1,11.53594c-3.1,0.28136 -6.9,0.28136 -11.1,-3.65773c-12.2,-11.25458 -12.3,-48.11331 -8.4,-54.02196c3.8,-5.90865 5.5,16.88186 11,30.66872c2.4,6.19001 5.3,8.44094 7.7,9.84776c3.4,1.68819 9.9,-9.00365 10.8,-7.59683z" fill="#ffab19" stroke="#001026" stroke-width="1.2" stroke-linecap="round" stroke-linejoin="round"/><path d="M204.4045,149.79591c1.6,7.59683 4.7,18.28868 4.7,18.28868c0,0 -3.7,-2.53228 -5.8,2.25091c-1.7,3.65773 -1.3,9.84776 -1.1,11.81731c-1.3,-3.65773 -2.9,-8.72229 -3.9,-18.57005c-1,-9.84776 0,-21.66505 2,-23.35324c2,-1.12546 2.5,3.09501 4.1,9.56638z" fill="#ffffff" stroke="none" stroke-width="1" stroke-linecap="butt" stroke-linejoin="miter"/></g><path d="M236.07213,196.8817c-1.1111,2.57878 -4.82382,11.79593 -10.88728,19.64196l-0.31842,0.36391c-0.31842,0.36391 -0.28456,1.11058 0.06771,1.49335c2.56525,1.99857 7.42478,6.17455 3.186,11.58614c-4.05812,5.29238 -19.04995,-6.50142 -16.8435,-13.64804c1.11562,-2.88938 2.95154,-3.02419 3.93611,-3.05864c0.53745,-0.04703 0.9891,-0.34504 1.39784,-0.76857c0.91234,-1.21722 2.55637,-3.53244 3.70585,-5.67514c2.94031,-5.32382 3.45748,-7.04929 4.62053,-10.12377c1.16305,-3.07448 3.73082,-10.4595 8.44588,-8.64905c4.0489,1.48101 3.71004,6.31867 2.68927,8.83786z" fill="#ffab19" stroke="#001026" stroke-width="1.2" stroke-linecap="round" stroke-linejoin="round"/><path d="M247.61541,175.44174c0.63808,-0.07415 10.01796,1.3615 10.23243,-2.3648c0.29862,-4.41103 -0.12452,-11.69929 4.75849,-11.8095c4.883,-0.11021 3.79626,12.03466 2.72204,16.3181c-2.87837,9.71855 -11.00132,9.11663 -12.97279,8.649c-1.97147,-0.46763 -5.35279,-1.18512 -7.14057,-3.80783c-1.8527,-2.91999 0.13465,-6.87408 2.4004,-6.98496z" fill="#ffab19" stroke="#001026" stroke-width="1.2" stroke-linecap="round" stroke-linejoin="round"/><g><path d="M250.2045,203.0963c2.1,2.63965 6.7,8.05787 6.7,8.05787c0,0 14.3,-3.47322 14.3,6.52965c0,5.97394 -7.2,7.36322 -16.9,6.11287c-0.6,-0.13893 -1.2,-0.41679 -1.7,-0.9725c-2.2,-2.63965 -8.5,-10.41966 -12.5,-15.83788c-5.9,-8.05787 -10.8,-13.33716 -10.8,-13.33716c-8.5,-11.53109 -1.6,-16.39359 1.1,-23.06217c2.5,-5.69608 3.6,-4.58465 9.6,-2.9175c3.4,0.69464 5.4,1.11143 7.6,0.9725c3.3,-0.13893 2.7,6.52965 1.8,10.00287c0,0 -1.4,5.14036 -2.7,7.78001c-1.6,3.19536 -2.8,5.27929 -4,6.52965z" fill="#ffab19" stroke="#001026" stroke-width="1.2" stroke-linecap="round" stroke-linejoin="round"/><path d="M241.8045,192.81558c0,0 -1.5,-1.66715 -3.1,-3.75108c-2,-2.50072 -4,-4.58465 -2,-8.89144c1.8,-3.33429 3.5,-7.78001 8,-3.75108c4.3,3.75108 2.4,7.2243 2.4,7.2243c-2.2,6.25179 -5.3,9.1693 -5.3,9.1693z" fill="#ffffff" stroke="none" stroke-width="1" stroke-linecap="butt" stroke-linejoin="miter"/></g><path d="M224.98868,170.6911c1.145,-0.86647 2.92115,-1.88294 4.60979,-2.96666c2.78524,-1.82862 8.02801,-3.51494 7.18268,3.77392c-0.62376,5.87143 -4.8165,8.36476 -9.61061,11.5073c-2.55251,1.53118 -5.56116,3.34686 -7.83807,0.16795c-2.57852,-3.56948 -8.95681,-16.25143 -3.21318,-21.20453c4.6191,-3.27705 6.03584,3.21003 7.42095,7.76753c0.29229,0.70097 0.86571,0.98291 1.44845,0.95447z" data-paper-data="{&quot;index&quot;:null}" fill="#ffab19" stroke="#001026" stroke-width="1.2" stroke-linecap="round" stroke-linejoin="round"/><path d="M257.73082,33.25851c0.3,-0.46527 0.8,-0.23264 0.9,0.69789l2.6,24.89163c0,0 6.4,10.93369 8.3,18.61055c3.2,12.79476 3.3,23.26319 3.3,23.26319c0,0 7.1,4.88528 8.3,18.1453c1.2,13.26003 -3.2,38.38428 -22,46.99167c-18.8,8.60739 -33.9,-3.25685 -41,-29.77689c-7.1,-26.52004 4.1,-58.158 3.5,-56.29693l-2.1,-41.64112c-0.1,-0.93053 0.4,-1.62843 0.8,-1.16315l12.1,18.37793c0,0 4.5,-3.95475 9.2,-4.42c2.8,-0.46527 5.2,0 7.5,0.93053z" fill="#ffab19" stroke="#001026" stroke-width="1.2" stroke-linecap="butt" stroke-linejoin="miter"/><path d="M272.53082,101.6523c0,0 6.9,4.18738 8.1,17.4474c1.2,13.26003 -3.6,37.22113 -22.2,45.59586c-24.2,11.6316 -35.7,-21.8674 -29,-46.52639c6.7,-24.89162 18.2,-3.72211 26.6,-5.1179c7.2,-1.16315 8,-15.81897 16.5,-11.39897z" fill="#ffffff" stroke="none" stroke-width="1" stroke-linecap="butt" stroke-linejoin="miter"/><path d="M290.93082,104.21126c-4.7,8.84002 -11.9,9.07266 -11.9,9.07266" fill="none" stroke="#001026" stroke-width="1.2" stroke-linecap="round" stroke-linejoin="round"/><path d="M289.63082,130.26604c-6.3,1.16315 -10.2,-3.25685 -10.2,-3.25685" fill="none" stroke="#001026" stroke-width="1.2" stroke-linecap="round" stroke-linejoin="round"/><path d="M210.63082,103.51337c0,0 8.6,6.51369 12.1,13.72529" fill="none" stroke="#001026" stroke-width="1.2" stroke-linecap="round" stroke-linejoin="round"/><path d="M223.5045,125.38077c-4.3,3.95475 -11.7,1.39579 -11.7,1.39579" fill="none" stroke="#001026" stroke-width="1.2" stroke-linecap="round" stroke-linejoin="round"/><path d="M288.35337,139.89452c0.31282,0.79489 -0.52162,1.62366 -1.66888,1.65753c-5.62541,-0.28623 -21.30884,-0.32579 -37.65739,2.36824c-14.66678,2.54386 -22.98456,5.00078 -26.75888,6.46919c-1.25811,0.48947 -2.71818,-0.27155 -2.57467,-1.38147c0.29386,-5.88887 4.58454,-23.0028 33.11631,-27.91607c25.10291,-3.3043 32.51332,8.89069 35.54352,18.80259z" fill="#ffffff" stroke="#001026" stroke-width="1.2" stroke-linecap="round" stroke-linejoin="round"/><path d="M257.05187,106.81882c2.1,0 4.3,0.27786 4.4,1.25036c0.1,1.945 -1.4,5.83501 -3,5.97394c-1.8,0.27786 -6,-3.19536 -6,-5.41822c-0.1,-1.66715 2.6,-1.80607 4.6,-1.80607z" fill="#001026" stroke="#001026" stroke-width="1.2" stroke-linecap="round" stroke-linejoin="round"/><path d="M266.00978,58.97631c2.9,6.25179 3,13.33716 0.2,15.83788c-2.8,2.50072 -7.4,-0.41679 -10.4,-6.66858c-2.9,-6.25179 -3,-13.33716 -0.2,-15.83788c2.8,-2.63965 7.5,0.41679 10.4,6.66858z" fill="#ffffff" stroke="#001026" stroke-width="1.2" stroke-linecap="round" stroke-linejoin="round"/><path d="M241.20978,62.86631c3,6.11287 2.8,13.61502 0.1,16.25466c-3.3,2.63965 -7.7,0.69464 -10.7,-5.41822c-3.1,-6.11287 -3.3,-14.0318 -0.2,-17.08824c3.1,-3.19536 7.8,0.13893 10.8,6.25179z" fill="#ffffff" stroke="#001026" stroke-width="1.2" stroke-linecap="round" stroke-linejoin="round"/><path d="M241.87464,71.93799c0,4.13031 -2.16216,7.50966 -4.86486,7.50966c-2.7027,0 -4.86486,-3.37934 -4.86486,-7.50966c0,-4.13031 2.16216,-7.50966 4.86486,-7.50966c2.7027,0.37548 4.86486,3.37934 4.86486,7.50966" fill="#001026" stroke="none" stroke-width="1" stroke-linecap="butt" stroke-linejoin="miter"/><path d="M268.03674,66.38088c0,4.13031 -2.16215,7.50964 -4.86486,7.50964c-2.7027,0 -4.86486,-3.37933 -4.86486,-7.50964c0,-4.13031 2.16216,-7.50966 4.86486,-7.50966c2.7027,0.37548 4.86486,3.37934 4.86486,7.50966" fill="#001026" stroke="none" stroke-width="1" stroke-linecap="butt" stroke-linejoin="miter"/></g></g></svg>