<svg version="1.1" xmlns="http://www.w3.org/2000/svg" xmlns:xlink="http://www.w3.org/1999/xlink" width="94.7053" height="143.54373" viewBox="0,0,94.7053,143.54373"><g transform="translate(-192.32102,-91.35153)"><g data-paper-data="{&quot;isPaintingLayer&quot;:true}" fill-rule="evenodd" stroke-miterlimit="10" stroke-dasharray="" stroke-dashoffset="0" style="mix-blend-mode: normal"><g><path d="M224.7,192.03919c0.8,0.8101 2.5,2.63281 0.1,9.51864c-2.4,6.88582 -9.3,8.30349 -10.1,8.30349c-3.1,0.20252 -6.9,0.20252 -11.1,-2.63281c-12.2,-8.10097 -12.3,-34.63164 -8.4,-38.88465c3.8,-4.25301 5.5,12.15145 11,22.07514c2.4,4.45553 5.3,6.07573 7.7,7.08835c3.4,1.21515 9.9,-6.48077 10.8,-5.46815z" fill="#ffab19" stroke="#001026" stroke-width="1.2" stroke-linecap="round" stroke-linejoin="round"/><path d="M199.9,175.63473c1.6,5.46815 4.7,13.16407 4.7,13.16407c0,0 -3.7,-1.82272 -5.8,1.62019c-1.7,2.63281 -1.3,7.08835 -1.1,8.50602c-1.3,-2.63281 -2.9,-6.27825 -3.9,-13.3666c-1,-7.08835 0,-15.59436 2,-16.80951c2,-0.8101 2.5,2.22777 4.1,6.88582z" fill="#ffffff" stroke="none" stroke-width="1" stroke-linecap="butt" stroke-linejoin="miter"/></g><path d="M231.56763,209.52677c-1.1111,1.85619 -4.82382,8.49063 -10.88728,14.13815l-0.31842,0.26194c-0.31842,0.26194 -0.28456,0.79939 0.06771,1.0749c2.56525,1.43856 7.42478,4.4444 3.186,8.33963c-4.05812,3.80942 -19.04995,-4.67968 -16.8435,-9.82377c1.11562,-2.07976 2.95154,-2.17679 3.93611,-2.20159c0.53745,-0.03385 0.9891,-0.24836 1.39784,-0.55321c0.91234,-0.87615 2.55637,-2.54263 3.70585,-4.08493c2.94031,-3.83205 3.45748,-5.07403 4.62053,-7.28702c1.16305,-2.21299 3.73082,-7.52868 8.44588,-6.22553c4.0489,1.06602 3.71004,4.54814 2.68927,6.36143z" fill="#ffab19" stroke="#001026" stroke-width="1.2" stroke-linecap="round" stroke-linejoin="round"/><path d="M243.11091,194.09443c0.63808,-0.05337 10.01796,0.98 10.23243,-1.70217c0.29862,-3.17503 -0.12452,-8.42107 4.75849,-8.5004c4.883,-0.07933 3.79626,8.66247 2.72204,11.74566c-2.87837,6.99535 -11.00132,6.56209 -12.97279,6.22549c-1.97147,-0.3366 -5.35279,-0.85304 -7.14057,-2.74085c-1.8527,-2.10179 0.13465,-4.94792 2.4004,-5.02773z" fill="#ffab19" stroke="#001026" stroke-width="1.2" stroke-linecap="round" stroke-linejoin="round"/><g><path d="M245.7,214c2.1,1.9 6.7,5.8 6.7,5.8c0,0 14.3,-2.5 14.3,4.7c0,4.3 -7.2,5.3 -16.9,4.4c-0.6,-0.1 -1.2,-0.3 -1.7,-0.7c-2.2,-1.9 -8.5,-7.5 -12.5,-11.4c-5.9,-5.8 -10.8,-9.6 -10.8,-9.6c-8.5,-8.3 -1.6,-11.8 1.1,-16.6c2.5,-4.1 3.6,-3.3 9.6,-2.1c3.4,0.5 5.4,0.8 7.6,0.7c3.3,-0.1 2.7,4.7 1.8,7.2c0,0 -1.4,3.7 -2.7,5.6c-1.6,2.3 -2.8,3.8 -4,4.7z" fill="#ffab19" stroke="#001026" stroke-width="1.2" stroke-linecap="round" stroke-linejoin="round"/><path d="M237.3,206.6c0,0 -1.5,-1.2 -3.1,-2.7c-2,-1.8 -4,-3.3 -2,-6.4c1.8,-2.4 3.5,-5.6 8,-2.7c4.3,2.7 2.4,5.2 2.4,5.2c-2.2,4.5 -5.3,6.6 -5.3,6.6z" fill="#ffffff" stroke="none" stroke-width="1" stroke-linecap="butt" stroke-linejoin="miter"/></g><path d="M220.48418,190.67495c1.145,-0.62368 2.92115,-1.35533 4.60979,-2.13538c2.78524,-1.31623 8.02801,-2.53003 7.18268,2.71644c-0.62376,4.22622 -4.8165,6.0209 -9.61061,8.28288c-2.55251,1.10213 -5.56116,2.40905 -7.83807,0.12089c-2.57852,-2.56929 -8.95681,-11.69767 -3.21318,-15.26288c4.6191,-2.3588 6.03584,2.31056 7.42095,5.59102c0.29229,0.50455 0.86571,0.70749 1.44845,0.68702z" data-paper-data="{&quot;index&quot;:null}" fill="#ffab19" stroke="#001026" stroke-width="1.2" stroke-linecap="round" stroke-linejoin="round"/><path d="M253.22632,91.75188c0.3,-0.3349 0.8,-0.16745 0.9,0.50234l2.6,17.91683c0,0 6.4,7.87 8.3,13.39575c3.2,9.20958 3.3,16.74469 3.3,16.74469c0,0 7.1,3.51639 8.3,13.06087c1.2,9.54448 -3.2,27.62875 -22,33.82429c-18.8,6.19554 -33.9,-2.34426 -41,-21.43321c-7.1,-19.08895 4.1,-41.86174 3.5,-40.52216l-2.1,-29.973c-0.1,-0.66979 0.4,-1.17213 0.8,-0.83723l12.1,13.22831c0,0 4.5,-2.8466 9.2,-3.18149c2.8,-0.3349 5.2,0 7.5,0.66979z" fill="#ffab19" stroke="#001026" stroke-width="1.2" stroke-linecap="butt" stroke-linejoin="miter"/><path d="M268.02632,140.98128c0,0 6.9,3.01405 8.1,12.55852c1.2,9.54448 -3.6,26.79152 -22.2,32.8196c-24.2,8.37235 -35.7,-15.74001 -29,-33.48939c6.7,-17.91682 18.2,-2.67915 26.6,-3.68383c7.2,-0.83723 8,-11.38639 16.5,-8.2049z" fill="#ffffff" stroke="none" stroke-width="1" stroke-linecap="butt" stroke-linejoin="miter"/><path d="M286.42632,142.8232c-4.7,6.36299 -11.9,6.53044 -11.9,6.53044" fill="none" stroke="#001026" stroke-width="1.2" stroke-linecap="round" stroke-linejoin="round"/><path d="M285.12632,161.57726c-6.3,0.83723 -10.2,-2.34426 -10.2,-2.34426" fill="none" stroke="#001026" stroke-width="1.2" stroke-linecap="round" stroke-linejoin="round"/><path d="M206.12632,142.32086c0,0 8.6,4.68851 12.1,9.87937" fill="none" stroke="#001026" stroke-width="1.2" stroke-linecap="round" stroke-linejoin="round"/><path d="M219,158.06087c-4.3,2.8466 -11.7,1.00468 -11.7,1.00468" fill="none" stroke="#001026" stroke-width="1.2" stroke-linecap="round" stroke-linejoin="round"/><path d="M283.84887,168.50777c0.31282,0.57216 -0.52162,1.1687 -1.66888,1.19308c-5.62541,-0.20603 -21.30884,-0.2345 -37.65739,1.70464c-14.66678,1.83105 -22.98456,3.59953 -26.75888,4.65648c-1.25811,0.35232 -2.71818,-0.19546 -2.57467,-0.99437c0.29386,-4.23877 4.58454,-16.55726 33.11631,-20.0938c25.10291,-2.37841 32.51332,6.39946 35.54352,13.53398z" fill="#ffffff" stroke="#001026" stroke-width="1.2" stroke-linecap="round" stroke-linejoin="round"/><path d="M252.54737,144.7001c2.1,0 4.3,0.2 4.4,0.9c0.1,1.4 -1.4,4.2 -3,4.3c-1.8,0.2 -6,-2.3 -6,-3.9c-0.1,-1.2 2.6,-1.3 4.6,-1.3z" fill="#001026" stroke="#001026" stroke-width="1.2" stroke-linecap="round" stroke-linejoin="round"/><path d="M261.50528,110.26338c2.9,4.5 3,9.6 0.2,11.4c-2.8,1.8 -7.4,-0.3 -10.4,-4.8c-2.9,-4.5 -3,-9.6 -0.2,-11.4c2.8,-1.9 7.5,0.3 10.4,4.8z" fill="#ffffff" stroke="#001026" stroke-width="1.2" stroke-linecap="round" stroke-linejoin="round"/><path d="M236.70528,113.06338c3,4.4 2.8,9.8 0.1,11.7c-3.3,1.9 -7.7,0.5 -10.7,-3.9c-3.1,-4.4 -3.3,-10.1 -0.2,-12.3c3.1,-2.3 7.8,0.1 10.8,4.5z" fill="#ffffff" stroke="#001026" stroke-width="1.2" stroke-linecap="round" stroke-linejoin="round"/><path d="M237.37014,119.59311c0,2.97297 -2.16216,5.4054 -4.86486,5.4054c-2.7027,0 -4.86486,-2.43243 -4.86486,-5.4054c0,-2.97297 2.16216,-5.4054 4.86486,-5.4054c2.7027,0.27027 4.86486,2.43243 4.86486,5.4054" fill="#001026" stroke="none" stroke-width="1" stroke-linecap="butt" stroke-linejoin="miter"/><path d="M263.53224,115.59314c0,2.97297 -2.16215,5.40539 -4.86486,5.40539c-2.7027,0 -4.86486,-2.43242 -4.86486,-5.40539c0,-2.97297 2.16216,-5.4054 4.86486,-5.4054c2.7027,0.27027 4.86486,2.43243 4.86486,5.4054" fill="#001026" stroke="none" stroke-width="1" stroke-linecap="butt" stroke-linejoin="miter"/></g></g></svg>